<?xml version="1.0" encoding="UTF-8"?> <svg xmlns="http://www.w3.org/2000/svg" width="200" height="41" viewBox="0 0 200 41" fill="none"> <path fill-rule="evenodd" clip-rule="evenodd" d="M40.6252 32.4294C42.0953 32.2511 42.9872 30.3927 42.6282 29.1036C41 29.8802 40.4246 30.7052 40.6252 32.4294ZM20.1245 15.209C22.9778 15.209 25.2909 17.5221 25.2909 20.3755C25.2909 23.2288 22.9778 25.5419 20.1245 25.5419C17.2711 25.5419 14.958 23.2288 14.958 20.3755C14.958 20.0035 14.9977 19.6408 15.0724 19.2912C15.4879 19.5179 15.9645 19.6469 16.4713 19.6469C18.0865 19.6469 19.3959 18.3375 19.3959 16.7223C19.3959 16.2155 19.267 15.7389 19.0402 15.3234C19.3899 15.2487 19.7525 15.209 20.1245 15.209ZM43.5808 31.8511C44.2795 31.8961 44.8556 31.11 44.8009 30.4798C43.9767 30.6991 43.6376 31.0324 43.5808 31.8511ZM40.6061 29.3107C41.5603 29.1005 42.0284 27.8234 41.7109 26.9995C40.6907 27.6127 40.3651 28.191 40.6061 29.3107ZM40.2005 38.5505C41.3569 39.1599 42.9381 38.2596 43.3254 37.1438C41.7536 36.889 40.9214 37.1986 40.2005 38.5505ZM40.5773 35.9169C43.0184 36.1066 45.0909 35.0106 45.4587 32.8616C42.9439 32.4088 40.9027 34.0097 40.5773 35.9169Z" fill="#353535"></path> <path fill-rule="evenodd" clip-rule="evenodd" d="M29.3052 37.9811C16.3749 44.748 0.266602 35.5237 0.266602 20.375C0.266602 -5.5111 39.4711 -5.8699 39.9766 19.9794C40.0619 26.7305 39.9792 33.4766 39.9792 40.2273C33.8289 39.689 30.4699 35.4869 30.2256 30.4066V20.5611C30.2268 20.4992 30.2275 20.4372 30.2275 20.375C30.2275 14.795 25.7041 10.2715 20.1241 10.2715C14.5441 10.2715 10.0207 14.795 10.0207 20.375C10.0207 26.785 15.8954 31.5268 22.1175 30.2814L25.6478 36.537C26.003 37.2578 26.6518 37.8301 27.4869 38.0627C28.1104 38.2363 28.743 38.1941 29.3052 37.9811ZM34.6654 31.8462C33.4141 31.4463 32.6062 30.4821 32.8584 29.3398C34.1997 29.624 34.8898 30.8327 34.6654 31.8462ZM38.7593 28.4658C37.4423 27.5913 36.8241 26.2095 37.4918 24.9701C38.951 25.7402 39.3524 27.3663 38.7593 28.4658ZM38.6554 33.4376C36.5184 32.4278 35.3059 30.5169 36.0266 28.5393C38.3514 29.3639 39.2958 31.6831 38.6554 33.4376ZM38.9694 39.0612C35.4973 38.571 32.9383 36.3971 33.089 33.2781C36.4936 33.4136 39.1453 35.4626 38.9694 39.0612Z" fill="#439D55"></path> <path d="M73.9467 13.0285H69.22V16.0505H69.1425C67.5928 13.6096 65.1907 12.3312 62.13 12.3312C56.2023 12.3312 51.4756 17.2128 51.4756 23.9541C51.4756 30.889 56.5122 35.1895 61.9749 35.1895C63.0986 35.1895 66.663 34.9958 69.1425 31.5865H69.22V34.4922H73.9467V13.0285ZM62.9436 17.2128C66.663 17.2128 69.1037 20.0023 69.1037 23.7216C69.1037 27.6347 66.6242 30.3079 62.9436 30.3079C59.1855 30.3079 56.6285 27.5959 56.6285 23.9541C56.6285 20.0797 59.2242 17.2128 62.9436 17.2128ZM97.1924 13.0285H92.0397V23.9541C92.0397 26.3561 91.8072 30.3079 87.6617 30.3079C83.5162 30.3079 83.2837 26.3561 83.2837 23.9541V13.0285H78.1308V24.6514C78.1308 28.0221 78.712 35.1895 86.8093 35.1895C88.1266 35.1895 90.5286 34.8408 92.3883 32.5163H92.4658V34.4922H97.1924V13.0285ZM102.152 34.4922H107.305V17.6002H110.404V13.0285H107.305V5.82227H102.152V13.0285H99.6333V17.6002H102.152V34.4922Z" fill="#353535"></path> <path d="M119.044 34.4922H122.221L126.289 20.5834L130.357 34.4922H133.534L141.282 13.0285H135.819L131.868 26.1237L128.303 13.0285H124.274L120.71 26.1237L116.758 13.0285H111.295L119.044 34.4922ZM153.293 12.3312C146.706 12.3312 141.902 17.5227 141.902 23.799C141.902 30.0368 146.745 35.1895 153.293 35.1895C159.84 35.1895 164.683 30.0368 164.683 23.799C164.683 17.5227 159.879 12.3312 153.293 12.3312ZM153.293 17.2128C157.128 17.2128 159.53 20.3122 159.53 23.799C159.53 27.286 157.09 30.3079 153.293 30.3079C149.496 30.3079 147.055 27.286 147.055 23.799C147.055 20.3122 149.457 17.2128 153.293 17.2128ZM167.783 34.4922H172.935V22.908C172.935 21.7457 172.858 17.2902 177.546 17.329V12.3312C175.492 12.1375 173.594 13.106 172.587 14.9656H172.509V13.0285H167.783V34.4922ZM180.18 34.4922H185.333V24.4577L192.694 34.4922H199.591L190.564 23.5279L198.312 13.0285H192.23L185.333 23.1405V5.82227H180.18V34.4922Z" fill="#439D55"></path> </svg> 